<svg preserveAspectRatio="none" overflow="visible" style="display: block;" width="464.503" height="333.614" viewBox="0 0 464.503 333.614" fill="none" xmlns="http://www.w3.org/2000/svg">
<path id="Ink mask / Hair / graphite" d="M286.94 4.6809L363.49 29.177M269.759 2.1799L377.569 36.679M256.369 0.891964L387.857 42.968M244.968 0.240272L396.157 48.6207M234.853 0.000476212L403.169 53.8615M225.665 0.0570729L409.256 58.806M217.188 0.341199L414.631 63.5229M209.281 0.807831L419.436 68.0573M201.847 1.42559L423.768 72.4405M194.813 2.17157L427.7 76.6956M188.125 3.02841L431.286 80.8398M181.742 3.9826L434.567 84.8866M175.63 5.02336L437.578 88.8469M169.76 6.14194L440.346 92.7293M164.111 7.33109L442.893 96.5412M158.664 8.58478L445.238 100.289M153.402 9.89785L447.398 103.977M148.312 11.2659L449.386 107.609M143.383 12.6852L451.214 111.191M138.603 14.1524L452.892 114.725M133.963 15.6646L454.43 118.214M129.456 17.2192L455.835 121.66M125.075 18.8141L457.114 125.066M120.813 20.4471L458.274 128.435M116.665 22.1164L459.32 131.766M112.625 23.8205L460.258 135.063M108.689 25.5578L461.093 138.327M104.853 27.327L461.827 141.559M101.113 29.127L462.465 144.76M97.465 30.9565L463.011 147.931M93.9066 32.8146L463.468 151.074M90.4347 34.7004L463.838 154.189M87.0467 36.6131L464.124 157.278M83.74 38.5518L464.329 160.34M80.5126 40.5158L464.454 163.377M77.3622 42.5045L464.503 166.389M74.287 44.5172L464.476 169.378M71.2854 46.5535L464.376 172.342M68.3555 48.6128L464.204 175.284M65.4961 50.6945L463.961 178.203M62.7056 52.7984L463.65 181.101M59.9828 54.9239L463.271 183.976M57.3266 57.0707L462.825 186.83M54.7358 59.2385L462.314 189.664M52.2094 61.4269L461.739 192.476M49.7467 63.6356L461.1 195.269M47.3466 65.8644L460.398 198.041M45.0084 68.113L459.634 200.793M42.7314 70.3812L458.809 203.526M40.5151 72.6688L457.924 206.24M38.3587 74.9755L456.978 208.934M36.2619 77.3013L455.973 211.609M34.224 79.6461L454.909 214.265M32.2448 82.0095L453.787 216.903M30.3239 84.3916L452.606 219.522M28.4608 86.7923L451.367 222.122M26.6555 89.2114L450.07 224.704M24.9077 91.6489L448.716 227.268M23.2172 94.1047L447.305 229.813M21.5839 96.5789L445.836 232.34M20.0078 99.0714L444.311 234.848M18.4888 101.582L442.728 237.339M17.027 104.111L441.088 239.811M15.6223 106.658L439.39 242.264M14.2751 109.224L437.636 244.7M12.9853 111.808L435.824 247.117M11.7533 114.411L433.954 249.515M10.5792 117.032L432.026 251.895M9.46346 119.672L430.04 254.256M8.40637 122.33L427.995 256.599M7.40835 125.008L425.891 258.922M6.46988 127.704L423.728 261.227M5.59149 130.42L421.505 263.512M4.77375 133.155L419.22 265.778M4.01731 135.91L416.875 268.024M3.32289 138.684L414.468 270.251M2.69126 141.479L411.997 272.457M2.12327 144.294L409.463 274.643M1.61986 147.13L406.865 276.808M1.18202 149.987L404.201 278.953M0.810848 152.865L401.47 281.076M0.507532 155.764L398.672 283.177M0.273356 158.686L395.804 285.256M0.109709 161.631L392.866 287.313M0.0180973 164.598L389.856 289.346M0.000152388 167.589L386.772 291.356M0.0576404 170.604L383.612 293.342M0.192476 173.644L380.376 295.303M0.406737 176.71L377.06 297.239M0.702677 179.801L373.662 299.148M1.08275 182.92L370.18 301.031M1.54963 186.066L366.611 302.886M2.10622 189.241L362.953 304.712M2.75571 192.445L359.201 306.508M3.50158 195.681L355.354 308.274M4.34766 198.949L351.406 310.007M5.29816 202.249L347.353 311.707M6.35775 205.585L343.192 313.372M7.53156 208.958L338.916 315.001M8.82534 212.369L334.52 316.591M10.2455 215.82L329.998 318.141M11.7992 219.314L325.343 319.648M13.4946 222.853L320.546 321.11M15.3408 226.441L315.598 322.523M17.3483 230.08L310.488 323.885M19.5292 233.775L305.205 325.191M21.8975 237.529L299.735 326.437M24.4695 241.349L294.061 327.619M27.2645 245.24L288.165 328.728M30.3057 249.21L282.022 329.76M33.621 253.268L275.604 330.703M37.2449 257.425L268.879 331.547M41.221 261.694L261.801 332.279M45.6052 266.094L254.315 332.881M50.4716 270.648L246.346 333.328M55.9223 275.389L237.794 333.588M62.1046 280.364L228.51 333.613M69.246 285.646L218.266 333.332M77.7332 291.359L206.677 332.621M88.3353 297.748L192.973 331.232M103.136 305.481L175.071 328.5" stroke="white" stroke-width="0.001" stroke-linejoin="round"/>
</svg>
